<?xml version="1.0" encoding="iso-8859-1"?>
<!-- Generator: Adobe Illustrator 19.0.0, SVG Export Plug-In . SVG Version: 6.00 Build 0)  -->
<svg version="1.1" id="Capa_1" xmlns="http://www.w3.org/2000/svg" xmlns:xlink="http://www.w3.org/1999/xlink" x="0px" y="0px"
	 viewBox="0 0 512.001 512.001" style="enable-background:new 0 0 512.001 512.001;" xml:space="preserve">
<path style="fill:#CFD8DC;" d="M202.667,16.64V64l-85.333,64l-63.573-10.667C88.773,66.042,142.026,30.031,202.667,16.64z"/>
<path style="fill:#455A64;" d="M117.334,138.667c-0.593-0.003-1.185-0.053-1.771-0.149L51.99,127.851
	c-5.811-0.97-9.735-6.467-8.765-12.277c0.256-1.535,0.845-2.994,1.725-4.277c36.5-53.589,92.121-91.182,155.456-105.067
	c5.757-1.249,11.437,2.406,12.686,8.163c0.16,0.739,0.242,1.492,0.242,2.248V64c0,3.357-1.581,6.519-4.267,8.533l-85.333,64
	C121.888,137.918,119.642,138.667,117.334,138.667z M72.683,109.696l41.92,7.04l77.397-58.069V30.272
	C144.846,43.497,103.081,71.297,72.683,109.696z"/>
<path style="fill:#CFD8DC;" d="M384.001,46.72V96l-106.667,10.667L202.667,64V16.64C264.722,2.654,329.785,13.447,384.001,46.72z"/>
<path style="fill:#455A64;" d="M277.334,117.333c-1.856-0.001-3.68-0.486-5.291-1.408l-74.667-42.667
	c-3.323-1.898-5.375-5.431-5.376-9.259V16.64c0-4.995,3.466-9.322,8.341-10.411c64.766-14.542,132.65-3.278,189.248,31.403
	c3.156,1.942,5.078,5.382,5.077,9.088V96c0.028,5.498-4.129,10.117-9.6,10.667l-106.667,10.667H277.334z M213.334,57.813
	l66.325,37.909l93.675-9.387V52.779c-48.346-27.957-105.099-37.695-160-27.456V57.813z"/>
<path style="fill:#CFD8DC;" d="M471.467,373.333c-32.143,58.979-87.032,102.226-151.893,119.68l11.093-66.347l85.333-53.333H471.467
	z"/>
<path style="fill:#455A64;" d="M319.574,503.68c-5.891-0.001-10.666-4.777-10.665-10.668c0-0.593,0.05-1.185,0.148-1.769
	l11.093-66.347c0.506-3.009,2.277-5.657,4.864-7.275l85.333-53.333c1.695-1.06,3.654-1.621,5.653-1.621h55.467
	c5.891-0.004,10.67,4.768,10.674,10.659c0.001,1.792-0.449,3.556-1.309,5.128c-33.614,61.481-90.864,106.581-158.507,124.864
	C321.429,503.561,320.503,503.683,319.574,503.68z M340.395,433.173l-7.467,44.587c49.163-17.192,91.262-50.156,119.744-93.76h-33.6
	L340.395,433.173z"/>
<path style="fill:#CFD8DC;" d="M501.334,256c0.065,41-10.207,81.354-29.867,117.333h-55.467l-10.667-106.667l32-85.333l55.68,11.093
	C498.509,213.172,501.305,234.539,501.334,256z"/>
<path style="fill:#455A64;" d="M471.467,384h-55.467c-5.498,0.028-10.117-4.129-10.667-9.6l-10.667-106.667
	c-0.168-1.633,0.044-3.283,0.619-4.821l32-85.333c1.848-4.936,7.024-7.782,12.181-6.699l55.68,11.093
	c3.999,0.795,7.196,3.801,8.235,7.744c5.708,21.632,8.605,43.91,8.619,66.283c-0.004,42.78-10.719,84.877-31.168,122.453
	C478.96,381.876,475.369,384.003,471.467,384z M425.665,362.667h39.403c16.83-33.038,25.602-69.589,25.6-106.667
	c-0.034-18.333-2.182-36.601-6.4-54.443l-40.149-8l-27.947,74.517L425.665,362.667z"/>
<path style="fill:#CFD8DC;" d="M149.334,202.667L96.001,288l-81.493,11.733c-2.584-14.434-3.87-29.07-3.84-43.733
	c-0.152-49.541,14.888-97.938,43.093-138.667L117.334,128L149.334,202.667z"/>
<path style="fill:#455A64;" d="M14.507,310.4c-5.151-0.01-9.558-3.7-10.475-8.768c-11.895-66.376,2.819-134.767,40.96-190.379
	c2.362-3.352,6.423-5.072,10.475-4.437l63.573,10.667c3.6,0.616,6.634,3.031,8.043,6.4l32,74.667
	c1.374,3.213,1.087,6.895-0.768,9.856l-53.333,85.333c-1.665,2.665-4.42,4.46-7.531,4.907l-81.493,11.733
	C15.475,310.418,14.991,310.425,14.507,310.4z M58.795,129.067C34.251,166.844,21.234,210.949,21.334,256
	c0.009,10.596,0.722,21.179,2.133,31.68l66.133-9.536l47.723-76.395l-27.499-64.192L58.795,129.067z"/>
<path style="fill:#CFD8DC;" d="M330.667,426.667l-11.093,66.347c-20.745,5.495-42.113,8.291-63.573,8.32
	c-51.121,0.146-100.987-15.829-142.507-45.653v-0.213L149.334,384l117.333-10.667L330.667,426.667z"/>
<path style="fill:#455A64;" d="M256.001,512c-53.36,0.167-105.411-16.511-148.736-47.659c-2.787-2.005-4.438-5.228-4.437-8.661
	c-0.004-1.728,0.383-3.434,1.131-4.992l35.84-71.467c1.646-3.289,4.871-5.499,8.533-5.845l117.333-10.667
	c2.822-0.259,5.632,0.616,7.808,2.432l64,53.333c2.914,2.428,4.319,6.222,3.691,9.963l-11.093,66.347
	c-0.701,4.131-3.755,7.469-7.808,8.533C300.639,509.046,278.369,511.964,256.001,512z M127.105,452.117
	c54.006,35.466,120.246,47.097,183.104,32.149l8.917-53.333l-55.915-46.592l-107.029,9.728L127.105,452.117z"/>
<polygon style="fill:#CFD8DC;" points="437.334,181.333 405.334,266.667 298.667,277.333 234.667,192 277.334,106.667 384.001,96 
	"/>
<path style="fill:#455A64;" d="M298.667,288c-3.357,0-6.519-1.581-8.533-4.267l-64-85.333c-2.417-3.23-2.805-7.548-1.003-11.157
	l42.667-85.333c1.646-3.289,4.871-5.499,8.533-5.845l106.667-10.667c4.038-0.408,7.957,1.51,10.112,4.949l53.333,85.333
	c1.762,2.818,2.109,6.297,0.939,9.408l-32,85.333c-1.421,3.835-4.91,6.521-8.981,6.912L299.734,288H298.667z M247.147,190.869
	l56.448,75.243l94.08-9.408l27.733-74.197l-46.933-75.243l-94.229,9.429L247.147,190.869z"/>
<polygon style="fill:#CFD8DC;" points="298.667,277.333 266.667,373.333 149.334,384 96.001,288 149.334,202.667 234.667,192 "/>
<g>
	<path style="fill:#455A64;" d="M149.334,394.667c-3.872,0-7.441-2.098-9.323-5.483l-53.333-96
		c-1.887-3.394-1.781-7.545,0.277-10.837l53.333-85.333c1.683-2.753,4.523-4.596,7.723-5.013l85.333-10.667
		c3.814-0.456,7.579,1.174,9.856,4.267l64,85.333c2.097,2.801,2.687,6.452,1.579,9.771l-32,96c-1.339,4.021-4.931,6.868-9.152,7.253
		l-117.333,10.667L149.334,394.667z M108.374,288.32l46.933,84.437l103.467-9.408l28.032-84.075l-56.96-75.925l-74.112,9.28
		L108.374,288.32z"/>
	<path style="fill:#455A64;" d="M282.625,97.408l-74.667-42.667c-3.693-2.111-8.287-1.826-11.691,0.725l-85.333,64
		c-3.97,2.957-5.384,8.258-3.413,12.8l32,74.667c1.702,3.9,5.559,6.415,9.813,6.4c0.441,0.026,0.882,0.026,1.323,0l85.333-10.667
		c3.535-0.441,6.616-2.618,8.213-5.803l42.667-85.333C289.461,106.445,287.59,100.222,282.625,97.408z"/>
	<path style="fill:#455A64;" d="M404.267,256l-106.667,10.667c-4.175,0.422-7.715,3.252-9.045,7.232l-32,96
		c-1.388,4.163-0.084,8.751,3.285,11.563l64,53.333c3.539,2.95,8.572,3.294,12.48,0.853l85.333-53.333
		c3.442-2.127,5.383-6.019,5.013-10.048L416.001,265.6c-0.557-5.865-5.763-10.167-11.627-9.611
		C404.338,255.993,404.303,255.996,404.267,256z"/>
	<path style="fill:#455A64;" d="M105.323,282.816c-2.118-3.907-6.436-6.091-10.837-5.483l-81.493,11.733
		c-5.831,0.839-9.878,6.245-9.04,12.077c0.017,0.121,0.037,0.241,0.058,0.361c11.693,65.694,48.807,124.132,103.296,162.645
		c4.798,3.418,11.459,2.299,14.877-2.499c0.318-0.446,0.601-0.916,0.846-1.405l35.84-71.467c1.58-3.152,1.5-6.881-0.213-9.963
		L105.323,282.816z"/>
	<path style="fill:#455A64;" d="M503.318,189.675c-17.214-63.253-57.902-117.56-113.771-151.851
		c-5.032-3.063-11.594-1.467-14.658,3.564c-1.017,1.671-1.555,3.589-1.556,5.545V96c0,1.999,0.562,3.958,1.621,5.653l53.333,85.333
		c1.559,2.489,4.075,4.226,6.955,4.8l55.68,11.093c0.702,0.147,1.417,0.218,2.133,0.213c5.891-0.001,10.666-4.777,10.665-10.668
		c0-0.929-0.122-1.853-0.361-2.75L503.318,189.675z"/>
</g>
<path d="M256.001,512c-141.385,0-256-114.615-256-256s114.615-256,256-256s256,114.615,256,256
	C511.848,397.322,397.322,511.847,256.001,512z M256.001,21.333C126.398,21.333,21.334,126.397,21.334,256
	s105.064,234.667,234.667,234.667S490.667,385.603,490.667,256C490.526,126.456,385.545,21.474,256.001,21.333z"/>
<path d="M149.334,213.333c-4.247,0.006-8.093-2.508-9.792-6.4l-32-74.667c-1.971-4.542-0.557-9.842,3.413-12.8l85.333-64
	c3.404-2.551,7.998-2.836,11.691-0.725l74.667,42.667c4.925,2.803,6.799,8.968,4.267,14.037l-42.667,85.333
	c-1.597,3.184-4.678,5.361-8.213,5.803l-85.333,10.667C150.247,213.309,149.791,213.338,149.334,213.333z M130.433,131.499
	l25.6,59.584l71.701-8.96l35.541-71.189L203.542,76.8L130.433,131.499z"/>
<path d="M330.667,437.333c-2.495-0.001-4.911-0.877-6.827-2.475l-64-53.333c-3.369-2.812-4.673-7.4-3.285-11.563l32-96
	c1.33-3.98,4.87-6.81,9.045-7.232l106.667-10.667c5.854-0.583,11.075,3.683,11.669,9.536l10.667,106.667
	c0.408,4.038-1.51,7.957-4.949,10.112l-85.333,53.333C334.625,436.772,332.666,437.333,330.667,437.333z M279.083,369.792
	l52.48,43.733l73.173-45.739l-8.939-89.451l-89.173,8.917L279.083,369.792z"/>
<path d="M117.334,458.667c-1.652,0.001-3.282-0.386-4.757-1.131c-5.271-2.63-7.413-9.035-4.783-14.307
	c0.001-0.003,0.003-0.005,0.004-0.008l29.483-58.965l-47.04-84.651l-67.392,9.728c-5.892,0.811-11.334-3.286-12.181-9.173
	c-0.875-5.826,3.138-11.258,8.963-12.133c0.063-0.009,0.126-0.018,0.189-0.027l74.667-10.667c4.373-0.597,8.667,1.533,10.837,5.376
	l53.333,96c1.713,3.082,1.793,6.811,0.213,9.963l-32,64C125.091,456.322,121.395,458.646,117.334,458.667z"/>
<path d="M490.667,202.667c-0.717,0.002-1.431-0.069-2.133-0.213l-53.333-10.667c-2.884-0.579-5.4-2.324-6.955-4.821l-53.333-85.333
	c-1.041-1.694-1.587-3.644-1.579-5.632V53.333c0-5.891,4.776-10.667,10.667-10.667s10.667,4.776,10.667,10.667v39.595l49.28,78.933
	l48.853,9.685c5.773,1.172,9.503,6.803,8.331,12.576C500.121,199.098,495.744,202.672,490.667,202.667z"/>
<path d="M298.667,288c-3.357,0-6.519-1.581-8.533-4.267l-64-85.333c-3.535-4.713-2.58-11.399,2.133-14.933
	c4.713-3.535,11.399-2.579,14.933,2.133l64,85.333c3.535,4.713,2.579,11.399-2.133,14.933C303.221,287.251,300.975,288,298.667,288
	L298.667,288z"/>
<path d="M149.334,394.667c-5.891,0.265-10.882-4.296-11.147-10.187c-0.265-5.891,4.296-10.882,10.187-11.147l117.333-10.667
	c5.845-0.459,10.988,3.831,11.584,9.664c0.531,5.867-3.796,11.053-9.663,11.584c0,0-0.001,0-0.001,0l-117.333,10.667
	L149.334,394.667z"/>
<path d="M320.001,501.333c-0.593,0.002-1.186-0.048-1.771-0.149c-5.807-0.969-9.731-6.459-8.768-12.267l10.667-64
	c0.791-5.838,6.165-9.929,12.002-9.138c5.838,0.791,9.929,6.165,9.138,12.002c-0.029,0.212-0.064,0.424-0.105,0.634l-10.667,64
	C329.643,497.552,325.207,501.321,320.001,501.333z"/>
<path d="M469.334,384h-53.333c-5.891,0-10.667-4.776-10.667-10.667s4.776-10.667,10.667-10.667h53.333
	c5.891,0,10.667,4.776,10.667,10.667S475.225,384,469.334,384z"/>
<path d="M405.334,277.333c-1.283,0.008-2.556-0.224-3.755-0.683c-5.514-2.074-8.303-8.225-6.229-13.739l32-85.333
	c2.074-5.52,8.229-8.314,13.749-6.24c5.52,2.074,8.314,8.229,6.24,13.749l-32,85.333
	C413.773,274.587,409.784,277.342,405.334,277.333z"/>
<path d="M277.334,117.333c-5.891,0.289-10.901-4.253-11.189-10.144c-0.289-5.891,4.253-10.901,10.144-11.189l106.667-10.667
	c5.784-0.648,10.998,3.517,11.646,9.301c0.009,0.078,0.017,0.157,0.024,0.235c0.653,5.855-3.564,11.13-9.419,11.783
	c-0.046,0.005-0.092,0.01-0.138,0.014l-106.667,10.667H277.334z"/>
<path d="M96.001,298.667c-5.891-0.012-10.657-4.797-10.645-10.688c0.004-1.992,0.566-3.943,1.621-5.632l53.333-85.333
	c2.954-5.097,9.481-6.834,14.577-3.88c5.097,2.954,6.834,9.481,3.88,14.577c-0.116,0.2-0.238,0.396-0.367,0.588l-53.333,85.333
	C103.119,296.765,99.69,298.669,96.001,298.667z"/>
<path d="M117.334,138.667c-0.593,0.002-1.186-0.048-1.771-0.149l-64-10.667c-5.779-1.141-9.539-6.752-8.398-12.531
	c1.093-5.535,6.306-9.261,11.897-8.504l64,10.667c5.809,0.982,9.721,6.487,8.74,12.295
	C126.937,134.892,122.52,138.642,117.334,138.667z"/>
<path d="M202.667,74.667c-5.891,0-10.667-4.776-10.667-10.667V21.333c0-5.891,4.776-10.667,10.667-10.667
	s10.667,4.776,10.667,10.667V64C213.334,69.891,208.558,74.667,202.667,74.667z"/>
<g>
</g>
<g>
</g>
<g>
</g>
<g>
</g>
<g>
</g>
<g>
</g>
<g>
</g>
<g>
</g>
<g>
</g>
<g>
</g>
<g>
</g>
<g>
</g>
<g>
</g>
<g>
</g>
<g>
</g>
</svg>
