<svg height="512" viewBox="0 0 53 60" width="512" xmlns="http://www.w3.org/2000/svg"><g id="Page-1" fill="none" fill-rule="evenodd"><g id="023---Sleepy-Cat" fill-rule="nonzero"><g id="Icons_copy" transform="translate(1 1)"><path id="Shape" d="m47 51c-1.3611037-1.2171864-3.2754479-1.6000553-5-1 0 0 1 2-1 5 0 0-1.34-2.68-4.02-2.55-3.4474348 3.4570443-8.0989007 5.4459223-12.98 5.55-4.8810993-.1040777-9.5325652-2.0929557-12.98-5.55-2.68-.13-4.02 2.55-4.02 2.55-2-3-1-5-1-5-1.72455206-.6000553-3.63889628-.2171864-5 1 0-3.84 2.94-5.9 4.31-6.66-.78285654-1.6767889-1.22798495-3.4912818-1.31-5.34.0375235-2.0877683.45430025-4.1513215 1.23-6.09-6.8-1.1-5.87-12.4-3.34-16.06 1.63-2.34 3.89.71 8.13 2.49.5382137.228189 1.0891264.4251821 1.65.59 1.6850116.3723072 3.2432823 1.1790225 4.52 2.34 0 .0026522.0010536.0051957.0029289.0070711.0018754.0018753.0044189.0029289.0070711.0029289 2.5695975.4987176 5.182529.7399113 7.8.72 2.617471.0199113 5.2304025-.2212824 7.8-.72.0055228 0 .01-.0044772.01-.01 1.2767177-1.1609775 2.8349884-1.9676928 4.52-2.34.5608736-.1648179 1.1117863-.361811 1.65-.59 4.24-1.78 6.5-4.83 8.13-2.49 2.53 3.66 3.46 14.96-3.34 16.06.7756997 1.9386785 1.1924765 4.0022317 1.23 6.09-.0820151 1.8487182-.5271435 3.6632111-1.31 5.34 1.37.76 4.31 2.82 4.31 6.66z" fill="#e8edfc"/><g fill="#cad9fc"><path id="Shape" d="m42.69 44.34c.7828565-1.6767889 1.2279849-3.4912818 1.31-5.34-.0375235-2.0877683-.4543003-4.1513215-1.23-6.09 6.8-1.1 5.87-12.4 3.34-16.06-.838-1.2-1.844-.978-3.2-.238.0711658.075441.1379423.1549051.2.238 2.53 3.66 3.46 14.96-3.34 16.06.7756997 1.9386785 1.1924765 4.0022317 1.23 6.09-.0820151 1.8487182-.5271435 3.6632111-1.31 5.34 2.1256394 1.0888356 3.6609446 3.0619626 4.194 5.39 1.153397.0542726 2.253274.5025536 3.116 1.27 0-3.84-2.94-5.9-4.31-6.66z"/><path id="Shape" d="m42.16 49.955c-1.0304961-.3270364-2.1392342-.3112474-3.16.045.3529832.9458416.3547575 1.9869608.005 2.934.8377876.4978717 1.5267183 1.2113208 1.995 2.066 2-3 1-5 1-5 .055-.018.106-.028.16-.045z"/><path id="Shape" d="m6.34 33c-.37188107.0014881-.74321634-.0286201-1.11-.09"/><path id="Shape" d="m37.98 19.34c-.5382137.228189-1.0891264.4251821-1.65.59-1.6850116.3723072-3.2432823 1.1790225-4.52 2.34 0 .0055228-.0044772.01-.01.01-2.5695975.4987176-5.182529.7399113-7.8.72-2.617471.0199113-5.2304025-.2212824-7.8-.72-.0055228 0-.01-.0044772-.01-.01-1.2767177-1.1609775-2.8349884-1.9676928-4.52-2.34-.5608736-.1648179-1.1117863-.361811-1.65-.59.0513866-1.4953515.3838436-2.9676611.98-4.34 0 0 4 3 13 3s13-3 13-3c.5961564 1.3723389.9286134 2.8446485.98 4.34z"/></g><path id="Shape" d="m37 15c-.7900473.5260036-1.6404867.9550844-2.533 1.278.2908543.9969332.4630451 2.0247071.513 3.062-.5382137.228189-1.0891264.4251821-1.65.59-1.6850116.3723072-3.2432823 1.1790225-4.52 2.34 0 .0055228-.0044772.01-.01.01-2.0770303.4062336-4.1843473.638373-6.3.694.486.015.982.026 1.5.026 2.617471.0199113 5.2304025-.2212824 7.8-.72.0055228 0 .01-.0044772.01-.01 1.2767177-1.1609775 2.8349884-1.9676928 4.52-2.34.5608736-.1648179 1.1117863-.361811 1.65-.59-.0513866-1.4953515-.3838436-2.9676611-.98-4.34z" fill="#a4c2f7"/><path id="Shape" d="m45 11c-1.82-.91-6.11-1.82-9.13-.48v.01c.6794634 1.396653 1.0641143 2.9182367 1.13 4.47 0 0-4 3-13 3s-13-3-13-3 0-15 13-15 20 4.08 25 9-2 3-4 2z" fill="#a4c2f7"/><path id="Shape" d="m49 9c-5-4.92-12-9-25-9-.364 0-.714.016-1.058.039 11.758.388 18.314 4.293 23.058 8.961 1.663 1.637 1.994 2.514 1.628 2.922 2.45.615 4.902.552 1.372-2.922z" fill="#7facfa"/><path id="Shape" d="m35.87 10.52c.6963845-.2977455 1.431872-.4940776 2.184-.583-1.7493222-.2583057-3.5357477-.05740174-5.184.583v.01c.6794634 1.396653 1.0641143 2.9182367 1.13 4.47 0 0-3.557 2.662-11.5 2.969.485.019.982.031 1.5.031 9 0 13-3 13-3-.0658857-1.5517633-.4505366-3.073347-1.13-4.47z" fill="#7facfa"/><path id="Shape" d="m27 47c-.1863875 1.5732047-1.4267953 2.8136125-3 3-1.5732047-.1863875-2.8136125-1.4267953-3-3 0-1.1 1.343-1 3-1s3-.1 3 1z" fill="#7facfa"/><path id="Shape" d="m20 41c0 1.6568542-1.3431458 3-3 3s-3-1.3431458-3-3c-.0021256-.3415766.0588994-.6806042.18-1 1.553288-.8875183 3.3662184-1.2091103 5.13-.91.4466848.5361559.6908934 1.2121536.69 1.91z" fill="#e8edfc"/><path id="Shape" d="m34 41c.0018215 1.3236782-.8641009 2.4921143-2.1310363 2.8755228-1.2669354.3834086-2.6354238-.1088349-3.3678522-1.2114119-.7324283-1.1025771-.6556756-2.5548764.1888885-3.5741109 1.7637816-.2991103 3.576712.0224817 5.13.91.1211006.3193958.1821256.6584234.18 1z" fill="#e8edfc"/></g><g id="Recolour_Swatches" fill="#fff" transform="translate(1 1)"><path id="Shape" d="m14 16.519v-1.519s0-14.168 11.942-14.961c-.017 0 0 0 .02 0-.652-.026-1.306-.039-1.962-.039-.445 0-1.16.039-1.058.039-11.942.793-11.942 14.961-11.942 14.961z"/><path id="Shape" d="m1 51c.86272604-.7674464 1.96260301-1.2157274 3.116-1.27.36129873-1.7815202 1.36139505-3.369511 2.812-4.465.76863283-.6160624 1.06891552-1.6476594.751-2.58-.41660469-1.1855446-.64569287-2.4288288-.679-3.685.00797652-1.026452.11852597-2.0495369.33-3.054.32694174-1.5177455-.25390209-3.0875831-1.49-4.027-4.123-3.082-3.131-11.914-.95-15.069.06205766-.0830949.12883417-.162559.2-.238-1.353-.74-2.359-.964-3.2.238-2.53 3.66-3.46 14.96 3.34 16.06-.77569975 1.9386785-1.1924765 4.0022317-1.23 6.09.08201505 1.8487182.52714346 3.6632111 1.31 5.34-1.37.76-4.31 2.82-4.31 6.66z"/><path id="Shape" d="m8.781 51.908c-.06676235-.6734945-.42928571-1.28252-.98948418-1.662296-.56019847-.3797759-1.26016581-.4910458-1.91051582-.303704l-.042.013c.054.017.105.027.16.045 0 0-1 2 1 5 .46993132-.8554479 1.16100638-1.5689716 2.001-2.066-.10452879-.3345028-.17784209-.6779706-.219-1.026z"/></g><g id="Layer_11"><path id="Shape" d="m12.84 7.832 1.82.828c-1.0137012 2.3192897-1.5770439 4.8102148-1.66 7.34h-2c.043243-1.4060346.2207159-2.8047221.53-4.177.2946471-1.3728229.7337594-2.71060691 1.31-3.991z" fill="#fff"/><g fill="#428dff"><path id="Shape" d="m12.523 13.033c-.5522847.0027614-1.0022386-.4427153-1.005-.995s.4427153-1.0022386.995-1.005h.01c.5522847 0 1 .4477153 1 1s-.4477153 1-1 1z"/><path id="Shape" d="m25 0c-2.5733489-.01701316-5.1007691.68166272-7.3 2.018-2.1462571 1.42935284-3.8339094 3.44828506-4.86 5.814-.1189227.24585736-.1295096.53026823-.0291942.7842865.1003153.25401827.3023743.45445233.5571942.5527135.4975032.19234363 1.0593708-.02901131 1.292-.509.8659554-2.01536053 2.2955788-3.73771465 4.117-4.96 1.8778903-1.12965308 4.0315932-1.71800195 6.223-1.7 13.688 0 20.176 4.656 24.3 8.713.4890883.4547193.9251919.9632832 1.3 1.516-1.4406411-.1274165-2.8475217-.5079107-4.156-1.124-2.8536027-1.2956335-6.0641108-1.57787597-9.1-.8-.2584795-.44266288-.5485662-.86609588-.868-1.267-.068-.085-.139-.168-.209-.251-.173-.2-.358-.4-.554-.6-.084-.085-.166-.172-.254-.254-.2724229-.2601801-.5592054-.50489673-.859-.733-.0603123-.03692342-.1243287-.06742339-.191-.091-.053353-.03096957-.1092166-.05739608-.167-.079-.0662011-.00964311-.1331671-.01299141-.2-.01-.059647-.007982-.1198543-.01099237-.18-.009-.0713341.01712528-.1407038.041589-.207.073-.0529001.01317441-.1044566.03125266-.154.054-.0565114.04025152-.1084829.08652295-.155.138-.0528137.03618651-.1017409.07774115-.146.124-.0341831.0555104-.0623427.11451137-.084.176-.0344953.05773722-.0632974.11869042-.086.182-.0080051.05964489-.0110156.11985408-.009.18-.0095956.06620577-.0129437.13316726-.01.2.0137023.05008265.0307404.09919234.051.147.0173604.07424035.0428475.146342.076.215.0354459.04671549.0745706.09052176.117.131.0414891.06186235.0901617.1185911.145.169l.011.009c.2351432.17836363.460472.36930891.675.572.092.087.177.176.263.265.12.12266667.2366667.24933333.35.38.093.108.184.216.269.326.108.139.209.283.309.43.119.174.23.348.333.524.086.148.171.3.25.452.5875015 1.1630073.9601479 2.4225521 1.1 3.718-1.215.707-5.021 2.524-11.96 2.524-8.49 0-12.366-2.775-12.4-2.8-.2377872-.1798592-.5434269-.2442352-.83356-.1755704s-.5344953.263208-.66644.5305704c-.4618338 1.0469853-.7751934 2.1533364-.931 3.287-.836-.432-1.585-.893-2.252-1.3-2.075-1.281-4.223-2.6-5.85-.254-2.109 3.042-2.944 9.989-.816 14.054.75310356 1.5275688 2.0766594 2.6977574 3.685 3.258-.58939699 1.7407599-.90515228 3.5624249-.936 5.4.05544307 1.6941527.4155227 3.364475 1.063 4.931-2.46790996 1.5124882-3.99834417 4.1752102-4.063 7.069.00008635.4043959.2437275.7689341.61734544.923678s.80366031.0692299 1.08965456-.216678c.84442713-.7451456 1.96694375-1.0940899 3.085-.959-.13809134 1.716045.3507945 3.4239478 1.376 4.807.19549201.2990003.53767871.4685626.894.443.35607284-.0219328.67349514-.2318964.833-.551.5465294-1.0585016 1.5600609-1.7974346 2.735-1.994 3.5993302 3.4663781 8.3739006 5.4472712 13.37 5.547 4.9960994-.0997288 9.7706698-2.0806219 13.37-5.547 1.1755689.1950656 2.1897059.9344401 2.735 1.994.1595049.3191036.4769272.5290672.833.551.3560659.0242701.6976343-.1449858.894-.443 1.0247918-1.3832563 1.5136324-3.0910007 1.376-4.807 1.1174285-.1282899 2.2372348.219812 3.085.959.2859943.2859079.7160366.3714219 1.0896546.216678.3736179-.1547439.6172591-.5192821.6173454-.923678-.0646558-2.8937898-1.59509-5.5565118-4.063-7.069.6474773-1.566525 1.0075569-3.2368473 1.063-4.931-.0308477-1.8375751-.346603-3.6592401-.936-5.4 1.6082782-.5630429 2.9304939-1.7361906 3.681-3.266 2.128-4.065 1.293-11.012-.816-14.054-1.629-2.347-3.774-1.026-5.85.254-.667.411-1.416.872-2.252 1.3-.1492558-1.0540328-.429419-2.0853292-.834-3.07-.0731307-1.2520436-.3357858-2.4857471-.779-3.659 2.4682195-.5070307 5.0330377-.233739 7.339.782 1.571432.7283756 3.2582079 1.1761293 4.984 1.323.7328216.0786905 1.4581815-.2036218 1.945-.757.9-1.26-.479-2.893-1.781-4.174-4.394-4.316-11.286-9.279-25.701-9.279zm18.128 19.241c.509-.314.908-.548 1.25-.736-.5976184 1.4820189-1.6175269 2.7557743-2.933 3.663-.7436764.4843638-1.513881.9267223-2.307 1.325-1.746.909-3.255 1.7-4.087 4.191-.174522.5246705.1093295 1.091478.634 1.266s1.091478-.1093295 1.266-.634c.576-1.729 1.477-2.2 3.113-3.05.8574632-.4304452 1.6898019-.9092152 2.493-1.434 1.8014774-1.2577969 3.168315-3.0435604 3.912-5.111 1.452 2.451 2.3 8.257.506 11.689-.6335007 1.3639845-1.9170812 2.3122592-3.407 2.517-.3001457.0492492-.6038413.0736653-.908.073-.5522847 0-1 .4477153-1 1s.4477153 1 1 1c.147 0 .284-.018.427-.025.5755882 1.6142007.883972 3.3114939.913 5.025-.0859238 1.7115612-.5029558 3.3902168-1.228 4.943-.2038523.4719829-.0165995 1.0216328.433 1.271 1.5910477.8201647 2.8286142 2.192118 3.481 3.859-1.2910599-.4674988-2.7038758-.4752693-4-.022-.2677016.0939565-.4836061.2960721-.595.557-.1119651.2628029-.1090649.5604288.008.821.2820277.8990316.2012766 1.8727109-.225 2.713-.9960658-1.1221609-2.4404048-1.7420536-3.94-1.691-.2389941.0120662-.4658803.1088474-.64.273-3.26875 3.2716798-7.6706531 5.1607672-12.294 5.276-4.6226497-.1157423-9.0237467-2.0047911-12.292-5.276-.1741197-.1641526-.4010059-.2609338-.64-.273-1.4999931-.0531758-2.94519832.5670887-3.94 1.691-.42351045-.8343281-.50703053-1.800365-.233-2.695.13108954-.2597842.14252187-.5637834.0313141-.8326795-.11120776-.2688962-.33402456-.4760166-.6103141-.5673205-1.29604188-.4537618-2.70902776-.4459904-4 .022.65394661-1.6658913 1.89254925-3.0363887 3.484-3.855.44959946-.2493672.63685235-.7990171.433-1.271-.72677055-1.5524332-1.14550427-3.2311037-1.233-4.943.02774276-1.7132847.33477435-3.4105716.909-5.025.143.007.28.025.427.025.55228475 0 1-.4477153 1-1s-.44771525-1-1-1c-1.82964574.0943174-3.53381528-.9300036-4.309-2.59-1.8-3.432-.946-9.238.506-11.689.74368502 2.0674396 2.11052257 3.8532031 3.912 5.111.80319807.5247848 1.63553681 1.0035548 2.493 1.434 1.636.852 2.537 1.321 3.113 3.05.1360719.4085428.5183926.6841037.949.684.1073501-.0003963.2139757-.0176048.316-.051.2517272-.0837568.4598559-.2641089.5785747-.501359.1187189-.2372502.1382971-.5119521.0544253-.763641-.832-2.5-2.341-3.282-4.087-4.191-.793119-.3982777-1.5633236-.8406362-2.307-1.325-1.31515805-.9071327-2.33500863-2.1804681-2.933-3.662.342.188.741.421 1.25.735 1.18257237.7612948 2.42227151 1.4299567 3.708 2l.013.006c.5865429.2514143 1.1876194.4674679 1.8.647 1.5490209.3234135 2.980023 1.0645052 4.138 2.143.061.067.11.128.156.187.1473586.174879.2551556.3795569.316.6.0096341.0713594.0270718.1414458.052.209.0080031.0475069.0197054.094316.035.14.0422335.0901168.0982373.1731103.166.246.017.019.026.044.044.062.2867452.2810813.7138074.3633909 1.0844799.2090167s.6130609-.5154903.6155201-.9170167v-.037c.000902-.0163209.000902-.0326791 0-.049 0-.024-.006-.056-.009-.088 1.9911568.2740347 3.9990868.4080303 6.009.401 2.0112244.0075489 4.0204974-.1261131 6.013-.4 0 .032-.008.064-.009.088-.000902.0163209-.000902.0326791 0 .049v.037c-.0012928.5555594.4406468 1.0108104.996 1.026.2622918.0064536.5161359-.0929682.7042756-.2758399.1881397-.1828718.2947285-.4337908.2957244-.6961601.009937-.0485547.0243313-.0960894.043-.142l.014-.037c.017-.039.039-.085.066-.135s.05-.088.081-.138.054-.079.084-.12c.0618875-.0857725.1286648-.1679086.2-.246 1.1578507-1.0644886 2.5810236-1.7974917 4.12-2.122.6124335-.1793696 1.2135197-.3954267 1.8-.647l.012-.006c1.2855116-.5681734 2.5252011-1.2348241 3.708-1.994zm-6.073.727c-1.7332712.4145019-3.3457696 1.2281134-4.709 2.376-2.4223467.4509558-4.8820781.6706106-7.346.656-2.4635925.0146559-4.9229964-.2049995-7.345-.656-1.3636423-1.1478386-2.9764519-1.9614343-4.71-2.376-.3-.087-.579-.2-.865-.3.0785921-.7428619.2252072-1.4769415.438-2.193 1.806.936 5.842 2.525 12.482 2.525s10.676-1.589 12.482-2.529c.2127928.7160585.3594079 1.4501381.438 2.193-.286.105-.563.217-.865.304z"/><path id="Shape" d="m21.8 40.773c.0925122-.1201646.1558435-.2601782.185-.409.0475147-.2609779-.0106106-.5301412-.1615842-.748256-.1509737-.2181147-.3824238-.3673068-.6434158-.414744-5.552-1.005-7.888 2.075-7.985 2.207-.2189966.3035986-.2500898.7040863-.0805767 1.0378481s.5112419.5448983.8855767.5471519c.0442732-.0071376.088033-.0171589.131-.03.3417552 1.4264798 1.4384753 2.550522 2.8561153 2.9272686 1.4176401.3767466 2.9276955-.054529 3.9325371-1.1231424s1.3425024-2.6023184.8793476-3.9941262zm-3.8 3.227c-.588635-.0000244-1.147369-.259355-1.52736-.7089081-.3799909-.4495532-.5426477-1.0436734-.44464-1.6240919 1.1558361-.5565147 2.4451496-.7759059 3.72-.633.1658448.2949023.2526521.6276637.252.966 0 1.1045695-.8954305 2-2 2z"/><path id="Shape" d="m25.391 46h-.782c-1.283-.008-2.393-.013-3.088.68-.3471027.3500874-.535425.8272187-.521 1.32.178472 1.7494437 1.3451225 3.2412009 3 3.836v3.164c0 .5522847.4477153 1 1 1s1-.4477153 1-1v-3.164c1.6548775-.5947991 2.821528-2.0865563 3-3.836.0147015-.4931249-.1736418-.9706708-.521-1.321-.696-.693-1.806-.687-3.088-.679zm-.391 4c-.981 0-1.9-1.24-1.992-1.921.5269202-.0771737 1.0600281-.1036282 1.592-.079h.8c.5346662-.0257418 1.0705682.0010533 1.6.08-.079.654-1.009 1.92-2 1.92z"/><path id="Shape" d="m28.821 39.2c-.5414641.1011688-.8991563.6211638-.8 1.163.029365.1487551.0926756.2887228.185.409-.4428807 1.3850053-.0972389 2.9012799.9021342 3.9575168s2.4942208 1.4851745 3.9015918 1.1195386c1.4073711-.365636 2.5043998-1.4679449 2.863274-2.8770554.041698.0120122.0841167.0213644.127.028.3759093-.0022273.7188128-.2150826.8876023-.5509737s.1349465-.7380663-.0876023-1.0410263c-.091-.132-2.43-3.216-7.979-2.208zm3.179 4.8c-1.1045695 0-2-.8954305-2-2-.0007429-.3383479.0860704-.6711319.252-.966 1.2748473-.1427967 2.5641307.0765894 3.72.633.0980077.5804185-.0646491 1.1745387-.44464 1.6240919-.379991.4495531-.938725.7088837-1.52736.7089081z"/><path id="Shape" d="m13.9 35.447c.3939489-.8249657 1.1985044-1.3767154 2.11-1.447.5522847-.0027615.9977614-.4527153.9949999-1.005-.0027614-.5522847-.4527152-.9977614-1.0049999-.995-1.6680532.0730054-3.1625518 1.0525831-3.895 2.553-.2468713.4942949-.0462949 1.0951287.448 1.342s1.0951287.0462949 1.342-.448z"/><path id="Shape" d="m33 33c0 .5522847.4477153 1 1 1 .9102648.0668036 1.7134051.6202056 2.1 1.447.2468713.4942949.8477051.6948713 1.342.448s.6948713-.8477051.448-1.342c-.7316004-1.4988906-2.2237716-2.4781999-3.89-2.553-.5522847 0-1 .4477153-1 1z"/></g></g></g></g></svg>